HIERARCHY
ROOT Hips
{
	OFFSET 0.000000 0.000000 0.000000
	CHANNELS 6 Xposition Yposition Zposition Zrotation Yrotation Xrotation 
	JOINT LHipJoint
	{
		OFFSET 0.000000 0.000000 0.000000
		CHANNELS 3 Zrotation Yrotation Xrotation
		JOINT LeftUpLeg
		{
			OFFSET 1.363060 -1.794630 0.839290
			CHANNELS 3 Zrotation Yrotation Xrotation
			JOINT LeftLeg
			{
				OFFSET 2.448110 -6.726130 0.000000
				CHANNELS 3 Zrotation Yrotation Xrotation
				JOINT LeftFoot
				{
					OFFSET 2.562200 -7.039590 0.000000
					CHANNELS 3 Zrotation Yrotation Xrotation
					JOINT LeftToeBase
					{
						OFFSET 0.157640 -0.433110 2.322550
						CHANNELS 3 Zrotation Yrotation Xrotation
						End Site
						{
							OFFSET 0.000000 0.000000 0.000000
						}
					}
				}
			}
		}
	}
	JOINT RHipJoint
	{
		OFFSET 0.000000 0.000000 0.000000
		CHANNELS 3 Zrotation Yrotation Xrotation
		JOINT RightUpLeg
		{
			OFFSET -1.305520 -1.794630 0.839290
			CHANNELS 3 Zrotation Yrotation Xrotation
			JOINT RightLeg
			{
				OFFSET -2.542530 -6.985550 0.000000
				CHANNELS 3 Zrotation Yrotation Xrotation
				JOINT RightFoot
				{
					OFFSET -2.568260 -7.056230 0.000000
					CHANNELS 3 Zrotation Yrotation Xrotation
					JOINT RightToeBase
					{
						OFFSET -0.164730 -0.452590 2.363150
						CHANNELS 3 Zrotation Yrotation Xrotation
						End Site
						{
							OFFSET 0.000000 0.000000 0.000000
						}
					}
				}
			}
		}
	}
	JOINT LowerBack
	{
		OFFSET 0.000000 0.000000 0.000000
		CHANNELS 3 Zrotation Yrotation Xrotation
		JOINT Spine
		{
			OFFSET 0.028270 2.035590 -0.193380
			CHANNELS 3 Zrotation Yrotation Xrotation
			JOINT Spine1
			{
				OFFSET 0.056720 2.048850 -0.042750
				CHANNELS 3 Zrotation Yrotation Xrotation
				JOINT Neck
				{
					OFFSET 0.000000 0.000000 0.000000
					CHANNELS 3 Zrotation Yrotation Xrotation
					JOINT Neck1
					{
						OFFSET -0.054170 1.746240 0.172020
						CHANNELS 3 Zrotation Yrotation Xrotation
						JOINT Head
						{
							OFFSET 0.104070 1.761360 -0.123970
							CHANNELS 3 Zrotation Yrotation Xrotation
							End Site
							{
								OFFSET 0.000000 0.000000 0.000000
							}
						}
					}
				}
				JOINT LeftShoulder
				{
					OFFSET 0.000000 0.000000 0.000000
					CHANNELS 3 Zrotation Yrotation Xrotation
					JOINT LeftArm
					{
						OFFSET 3.362410 1.200890 -0.311210
						CHANNELS 3 Zrotation Yrotation Xrotation
						JOINT LeftForeArm
						{
							OFFSET 4.983000 -0.000000 -0.000000
							CHANNELS 3 Zrotation Yrotation Xrotation
							JOINT LeftHand
							{
								OFFSET 3.483560 -0.000000 -0.000000
								CHANNELS 3 Zrotation Yrotation Xrotation
								JOINT LeftFingerBase
								{
									OFFSET 0.000000 0.000000 0.000000
									CHANNELS 3 Zrotation Yrotation Xrotation
									JOINT LeftHandIndex1
									{
										OFFSET 0.715260 -0.000000 -0.000000
										CHANNELS 3 Zrotation Yrotation Xrotation
										End Site
										{
											OFFSET 0.000000 0.000000 0.000000
										}
									}
								}
								JOINT LThumb
								{
									OFFSET 0.000000 0.000000 0.000000
									CHANNELS 3 Zrotation Yrotation Xrotation
									End Site
									{
										OFFSET 0.000000 0.000000 0.000000
									}
								}
							}
						}
					}
				}
				JOINT RightShoulder
				{
					OFFSET 0.000000 0.000000 0.000000
					CHANNELS 3 Zrotation Yrotation Xrotation
					JOINT RightArm
					{
						OFFSET -3.136600 1.374050 -0.404650
						CHANNELS 3 Zrotation Yrotation Xrotation
						JOINT RightForeArm
						{
							OFFSET -5.241900 -0.000000 -0.000000
							CHANNELS 3 Zrotation Yrotation Xrotation
							JOINT RightHand
							{
								OFFSET -3.444170 -0.000000 -0.000000
								CHANNELS 3 Zrotation Yrotation Xrotation
								JOINT RightFingerBase
								{
									OFFSET 0.000000 0.000000 0.000000
									CHANNELS 3 Zrotation Yrotation Xrotation
									JOINT RightHandIndex1
									{
										OFFSET -0.622530 -0.000000 -0.000000
										CHANNELS 3 Zrotation Yrotation Xrotation
										End Site
										{
											OFFSET 0.000000 0.000000 0.000000
										}
									}
								}
								JOINT RThumb
								{
									OFFSET 0.000000 0.000000 0.000000
									CHANNELS 3 Zrotation Yrotation Xrotation
									End Site
									{
										OFFSET 0.000000 0.000000 0.000000
									}
								}
							}
						}
					}
				}
			}
		}
	}
}
MOTION
Frames: 5
Frame Time: 0.033333
-2.164747 16.426628 23.305785 1.183712 6.299778 9.841832 -5.791166 4.316065 -5.268100 -15.519217 -1.932943 -4.018382 -8.400925 -13.167025 -34.202036 0.361368 12.441491 26.649710 0.000000 0.000000 0.000000 14.225140 3.055315 -3.669768 0.214756 -3.083272 -1.337993 4.142662 -27.980536 44.798530 14.568748 -21.697004 0.468593 0.000000 0.000000 0.000000 -6.551264 -1.371974 17.040638 3.894970 -1.351585 -5.481692 2.136280 -0.846589 -4.819941 -1.779203 0.523764 -2.214565 5.041721 -0.164063 5.827894 0.000000 0.000000 0.000000 9.553722 12.394320 7.213480 -71.735873 -6.205297 24.115542 -26.235134 -75.132951 0.572781 -0.185827 -15.085999 0.281571 -0.163932 -15.094595 0.000000 0.000000 0.000000 0.000000 0.000000 0.000000 0.000000 -5.876530 -16.862771 6.081968 68.619204 7.347874 16.734302 28.620584 62.311576 0.317613 0.735625 11.239407 0.157444 0.728593 11.243749 0.000000 0.000000 0.000000 0.000000 0.000000 0.000000 0.000000 
-2.179761 16.450758 23.500143 1.456086 6.026967 10.048236 -5.407772 4.250373 -5.599307 -16.244291 -1.638733 -3.429018 -8.039554 -12.871003 -33.545777 0.216183 11.469071 24.489192 0.000000 0.000000 0.000000 14.238822 2.992896 -3.383467 0.069762 -3.001812 -1.417105 3.739980 -27.786087 44.744060 14.924189 -23.181283 2.819804 0.000000 0.000000 0.000000 -6.710126 -1.242272 17.221159 3.640508 -1.410128 -5.156859 2.177653 -0.793283 -5.444152 -2.286199 0.576134 -1.446068 5.149527 -0.208809 6.275645 0.000000 0.000000 0.000000 9.582272 13.077961 6.967504 -71.645706 -6.313936 24.757446 -27.392930 -74.516590 0.597231 -0.434912 -15.091994 0.293974 -0.417305 -15.101498 0.000000 0.000000 0.000000 0.000000 0.000000 0.000000 0.000000 -5.351474 -17.752651 5.717523 68.021647 7.530456 16.555425 29.587702 60.668480 0.311704 0.867859 11.064406 0.154584 0.861815 11.068751 0.000000 0.000000 0.000000 0.000000 0.000000 0.000000 0.000000 
-2.192177 16.478061 23.693371 1.719819 5.747019 10.255359 -5.038227 4.205841 -5.946793 -16.960609 -1.358253 -2.889680 -7.702984 -12.525135 -32.764252 0.094810 10.482989 22.274522 0.000000 0.000000 0.000000 14.267485 2.874476 -3.046678 -0.090892 -2.902536 -1.556840 3.336457 -27.559397 44.638747 15.236523 -24.669871 5.147980 0.000000 0.000000 0.000000 -6.875396 -1.107288 17.371258 3.429049 -1.455686 -4.893332 2.205589 -0.732847 -6.004536 -2.701909 0.618797 -0.743449 5.212567 -0.246519 6.641657 0.000000 0.000000 0.000000 9.581457 13.687973 6.746626 -71.564889 -6.423200 25.330687 -28.503805 -73.877159 0.619666 -0.663525 -15.089786 0.305360 -0.649871 -15.100056 0.000000 0.000000 0.000000 0.000000 0.000000 0.000000 0.000000 -4.904579 -18.522520 5.389652 67.498316 7.644987 16.522745 30.298088 59.529455 0.308731 0.971244 10.949777 0.153158 0.965921 10.954137 0.000000 0.000000 0.000000 0.000000 0.000000 0.000000 0.000000 
-2.200793 16.508016 23.884754 1.975717 5.463236 10.461591 -4.686397 4.184727 -6.307306 -17.664386 -1.094592 -2.404021 -7.405366 -12.132210 -31.858094 -0.003559 9.491775 20.020164 0.000000 0.000000 0.000000 14.307960 2.700156 -2.661694 -0.267493 -2.786003 -1.755527 2.929294 -27.301770 44.490542 15.498140 -26.145676 7.432302 0.000000 0.000000 0.000000 -7.039580 -0.967596 17.488430 3.250464 -1.490473 -4.675365 2.215039 -0.666950 -6.508767 -3.037225 0.654660 -0.104332 5.246134 -0.277930 6.943458 0.000000 0.000000 0.000000 9.555984 14.228735 6.547453 -71.489790 -6.535454 25.837968 -29.570142 -73.214392 0.640185 -0.872727 -15.079024 0.315777 -0.862709 -15.089936 0.000000 0.000000 0.000000 0.000000 0.000000 0.000000 0.000000 -4.534145 -19.182701 5.099732 67.053790 7.684172 16.659377 30.794384 58.913696 0.309560 1.053514 10.901692 0.153602 1.048763 10.906101 0.000000 0.000000 0.000000 0.000000 0.000000 0.000000 0.000000 
-2.205583 16.540128 24.073655 2.224150 5.178393 10.665703 -4.355139 4.189434 -6.677552 -18.352598 -0.850446 -1.975490 -7.148976 -11.695209 -30.831057 -0.080524 8.501558 17.742035 0.000000 0.000000 0.000000 14.357364 2.468670 -2.230489 -0.459304 -2.651440 -2.012154 2.524296 -27.015873 44.304827 15.707797 -27.596039 9.650819 0.000000 0.000000 0.000000 -7.196661 -0.823384 17.570154 3.098014 -1.515282 -4.492019 2.201134 -0.596978 -6.961926 -3.298104 0.685386 0.472707 5.259989 -0.303771 7.193638 0.000000 0.000000 0.000000 9.508782 14.701453 6.367603 -71.417589 -6.652044 26.280239 -30.593903 -72.527667 0.658835 -1.063298 -15.059103 0.325251 -1.056605 -15.070554 0.000000 0.000000 0.000000 0.000000 0.000000 0.000000 0.000000 -4.241373 -19.738437 4.848070 66.694657 7.639169 16.987261 31.094330 58.851345 0.314943 1.119047 10.926543 0.156296 1.114797 10.931049 0.000000 0.000000 0.000000 0.000000 0.000000 0.000000 0.000000 
